# xmcd
#
# Track frame offsets: 
#        150
#        12345
#        25083
#        36705
#        48580
#        57988
#        68205
#        78208
#        95140
#        106135
#        115170
#        125840
#        134000
#        146608
#        157740
#        168053
#        178985
#        190325
#        204138
#        211758
#
# Disc length: 3005 seconds
#
# Revision: 5
# Processed by: cddbd v1.5.2PL0 Copyright (c) Steve Scherf et al.
# Submitted via: ExactAudioCopyFreeDBPlugin 1.0
#
DISCID=1d0bbb14
DTITLE=Hank Williams - Ultimate Collection, Disc 2
DYEAR=2002
DGENRE=Folklore
TTITLE0=Your Cheatin' Heart
TTITLE1=Please Make Up Your Mind
TTITLE2=Kaw-Liga
TTITLE3=Take These Chains From My Heart
TTITLE4=Rockin' Chair Money
TTITLE5=Please Don't Let Me Love You
TTITLE6=Someday You'll Call My Name
TTITLE7=Cool Water
TTITLE8=First Year Blues
TTITLE9=Alone And Forsaken
TTITLE10=Angel Of Death, The
TTITLE11=Ready To Go Home
TTITLE12=There's A Tear In My Beer
TTITLE13=Weary Blues From Waitin'
TTITLE14=Why Don't You Love Me
TTITLE15=Moanin' The Blues
TTITLE16=I'm A Long Gone Daddy
TTITLE17=Lost Highway
TTITLE18=I Can't Get You Off Of My Mind
TTITLE19=Lovesick Blues
EXTD=
EXTT0=
EXTT1=
EXTT2=
EXTT3=
EXTT4=
EXTT5=
EXTT6=
EXTT7=
EXTT8=
EXTT9=
EXTT10=
EXTT11=
EXTT12=
EXTT13=
EXTT14=
EXTT15=
EXTT16=
EXTT17=
EXTT18=
EXTT19=
PLAYORDER=
